<svg xmlns="http://www.w3.org/2000/svg" viewBox="0 0 192.56 193.68"><g id="Layer_2" data-name="Layer 2"><g id="Layer_1-2" data-name="Layer 1"><path d="M99.16,21.87a32,32,0,0,1,5,4,44.05,44.05,0,0,1,5.24,6.82,45.26,45.26,0,0,1,4.35,9,42,42,0,0,1,1.57,12.13q-.21,12.71-5.62,20.34A64.26,64.26,0,0,1,104.11,81q-3.28,3.1-7,6.35a32.88,32.88,0,0,0-3.91,5A11,11,0,0,0,91.1,99a8.8,8.8,0,0,0,2.17,6.13,47.26,47.26,0,0,0,3.59,4l8,6.58A81.72,81.72,0,0,1,118,129.32q5.31,7.52,5.54,19.64,0,17.22-15.21,30.51-15.73,13.75-45.49,14.21-24.88-.23-37.16-10.6-12.37-9.71-12.39-23.19c0-4.37,1.34-9.27,4-14.65s7.32-10.1,14.16-14.18a73.87,73.87,0,0,1,24.17-8.76,184.54,184.54,0,0,1,20.83-2.08A50.75,50.75,0,0,1,72,113a16.45,16.45,0,0,1-2.33-8.94,13.44,13.44,0,0,1,.88-5.23c.52-1.48,1-2.83,1.45-4.07a66.46,66.46,0,0,1-7.6.46Q45.42,95,35.51,83.34A35.47,35.47,0,0,1,25.12,58q0-17.46,14.71-31.66a51.67,51.67,0,0,1,21-10.86A101.75,101.75,0,0,1,81,13.32h47.37l-14.63,8.55Zm9.14,136.35a23.11,23.11,0,0,0-5.87-15.72Q96.19,136.16,83,126.9a51.4,51.4,0,0,0-5.31-.23,61.8,61.8,0,0,0-9.28.46,101.73,101.73,0,0,0-15.05,3.35q-1.82.69-5.08,2.09a30.84,30.84,0,0,0-6.69,4.27A24.76,24.76,0,0,0,36,144a21.22,21.22,0,0,0-2.6,10.86q0,12.48,11.3,20.57,10.76,8.09,29.41,8.32,16.75-.24,25.57-7.4a22.38,22.38,0,0,0,8.6-18.14m-33-69.44a22.08,22.08,0,0,0,15.58-6.72,24.39,24.39,0,0,0,3.87-9.26,77.61,77.61,0,0,0,.53-8q0-14-7.17-28.25a31.6,31.6,0,0,0-8.85-11.11,22.83,22.83,0,0,0-12.88-4.28,20.85,20.85,0,0,0-16,7.76,29.06,29.06,0,0,0-5.14,17.6q0,12.84,7.51,26.74a36.47,36.47,0,0,0,9.4,11,20.69,20.69,0,0,0,13.16,4.52" style="fill:#f21955"/><polygon points="192.56 39.2 167.71 39.2 167.71 14.34 155.67 14.34 155.67 39.2 130.82 39.2 130.82 51.24 155.67 51.24 155.67 76.09 167.71 76.09 167.71 51.24 192.56 51.24 192.56 39.2" style="fill:#f21955"/><path d="M88.33,11a31.51,31.51,0,0,1,5,4,43.44,43.44,0,0,1,5.24,6.82,45.37,45.37,0,0,1,4.36,9,42.33,42.33,0,0,1,1.56,12.13q-.21,12.71-5.61,20.33a64.69,64.69,0,0,1-5.61,6.82c-2.19,2.07-4.52,4.2-7,6.36a31.83,31.83,0,0,0-3.92,5,11,11,0,0,0-2.11,6.69,8.82,8.82,0,0,0,2.17,6.13A48.82,48.82,0,0,0,86,98.4l8,6.58A80.94,80.94,0,0,1,107.2,118.5q5.33,7.52,5.55,19.63,0,17.24-15.21,30.52Q81.79,182.4,52.05,182.86q-24.88-.23-37.16-10.61Q2.52,162.56,2.5,149.07q0-6.57,4-14.65t14.15-14.18a74,74,0,0,1,24.17-8.77,184.63,184.63,0,0,1,20.83-2.07,50.8,50.8,0,0,1-4.56-7.21,16.41,16.41,0,0,1-2.33-8.93A13.52,13.52,0,0,1,59.68,88c.52-1.47,1-2.82,1.45-4.06a69,69,0,0,1-7.61.46q-18.93-.24-28.84-11.9A35.52,35.52,0,0,1,14.29,47.21q0-17.45,14.72-31.66A51.7,51.7,0,0,1,50,4.69,101.78,101.78,0,0,1,70.19,2.5h47.37L102.94,11Zm9.15,136.35a23,23,0,0,0-5.88-15.71q-6.22-6.36-19.46-15.61c-1.51-.15-3.28-.23-5.32-.23a63.17,63.17,0,0,0-9.27.46,103.08,103.08,0,0,0-15,3.36c-1.21.46-2.9,1.16-5.09,2.08A31.25,31.25,0,0,0,30.73,126a24.87,24.87,0,0,0-5.54,7.16,21.36,21.36,0,0,0-2.6,10.87q0,12.48,11.3,20.57,10.77,8.08,29.42,8.32,16.75-.24,25.56-7.4a22.37,22.37,0,0,0,8.61-18.15M64.46,78A22.14,22.14,0,0,0,80,71.24,24.45,24.45,0,0,0,83.91,62a77.41,77.41,0,0,0,.52-8q0-14-7.17-28.25a31.38,31.38,0,0,0-8.85-11.11,22.65,22.65,0,0,0-12.87-4.28,20.81,20.81,0,0,0-16,7.75,29.09,29.09,0,0,0-5.15,17.6q0,12.86,7.51,26.75a36.77,36.77,0,0,0,9.41,11A20.67,20.67,0,0,0,64.46,78" style="fill:none;stroke:#000;stroke-linecap:round;stroke-linejoin:round;stroke-width:5px"/><polygon points="181.74 28.37 156.88 28.37 156.88 3.51 144.84 3.51 144.84 28.37 119.99 28.37 119.99 40.41 144.84 40.41 144.84 65.27 156.88 65.27 156.88 40.41 181.74 40.41 181.74 28.37" style="fill:none;stroke:#000;stroke-linecap:round;stroke-linejoin:round;stroke-width:5px"/></g></g></svg>