<svg xmlns="http://www.w3.org/2000/svg" viewBox="0 0 179.75 179.74"><g id="Layer_2" data-name="Layer 2"><g id="Layer_1-2" data-name="Layer 1"><path d="M34.69,13.32h123.7a21.42,21.42,0,0,1,21.36,21.37v123.7a21.41,21.41,0,0,1-21.36,21.35H34.69a21.42,21.42,0,0,1-21.37-21.35V34.69A21.44,21.44,0,0,1,34.69,13.32m99.88,18.49a7.52,7.52,0,0,0-7.5,7.5V57.24a7.52,7.52,0,0,0,7.5,7.5h18.8a7.52,7.52,0,0,0,7.5-7.5V39.31a7.52,7.52,0,0,0-7.5-7.5ZM160.94,83.7H146.29A48.65,48.65,0,0,1,148.43,98c0,27.67-23.16,50.12-51.74,50.12S45,125.66,45,98A49,49,0,0,1,47.1,83.7H31.83V154a6.62,6.62,0,0,0,6.61,6.6H154.33a6.62,6.62,0,0,0,6.61-6.6ZM96.69,63.79c-18.45,0-33.41,14.49-33.41,32.39s15,32.38,33.41,32.38,33.43-14.5,33.43-32.38-15-32.39-33.43-32.39" style="fill:#007f90"/><path d="M23.87,2.5h123.7a21.42,21.42,0,0,1,21.36,21.36v123.7a21.42,21.42,0,0,1-21.36,21.36H23.87A21.43,21.43,0,0,1,2.5,147.56V23.86A21.43,21.43,0,0,1,23.87,2.5M123.74,21a7.51,7.51,0,0,0-7.49,7.5V46.41a7.51,7.51,0,0,0,7.49,7.5h18.81a7.51,7.51,0,0,0,7.49-7.5V28.49a7.51,7.51,0,0,0-7.49-7.5Zm26.37,51.89H135.47a48.6,48.6,0,0,1,2.14,14.29c0,27.67-23.17,50.12-51.74,50.12S34.14,114.84,34.14,87.17a48.93,48.93,0,0,1,2.14-14.29H21v70.3a6.62,6.62,0,0,0,6.61,6.61H143.5a6.62,6.62,0,0,0,6.61-6.61ZM85.87,53C67.42,53,52.45,67.46,52.45,85.36s15,32.38,33.42,32.38,33.43-14.5,33.43-32.38S104.33,53,85.87,53" style="fill:none;stroke:#000;stroke-linecap:round;stroke-linejoin:round;stroke-width:5px"/></g></g></svg>