<svg xmlns="http://www.w3.org/2000/svg" viewBox="0 0 185.19 184.8"><g id="Layer_2" data-name="Layer 2"><g id="Layer_1-2" data-name="Layer 1"><path d="M16.15,70.26H51.8V184.8H16.15ZM34,13.32A20.64,20.64,0,1,1,13.32,34,20.65,20.65,0,0,1,34,13.32" style="fill:#005674"/><path d="M74.15,70.26h34.14V85.91h.49c4.75-9,16.37-18.5,33.7-18.5,36,0,42.71,23.72,42.71,54.56V184.8H149.6V129.11c0-13.3-.26-30.38-18.51-30.38-18.54,0-21.36,14.47-21.36,29.4V184.8H74.15Z" style="fill:#005674"/><path d="M5.33,59.44H41V174H5.33ZM23.16,2.5A20.64,20.64,0,1,1,2.5,23.13,20.64,20.64,0,0,1,23.16,2.5" style="fill:none;stroke:#000;stroke-linecap:round;stroke-linejoin:round;stroke-width:5px"/><path d="M63.33,59.44H97.47V75.09H98c4.74-9,16.37-18.5,33.7-18.5,36,0,42.71,23.71,42.71,54.56V174H138.78V118.29c0-13.3-.26-30.38-18.51-30.38-18.54,0-21.37,14.46-21.37,29.4V174H63.33Z" style="fill:none;stroke:#000;stroke-linecap:round;stroke-linejoin:round;stroke-width:5px"/></g></g></svg>