<svg xmlns="http://www.w3.org/2000/svg" viewBox="0 0 181.78 150.22"><g id="Layer_2" data-name="Layer 2"><g id="Layer_1-2" data-name="Layer 1"><path d="M181.78,29.53A69.32,69.32,0,0,1,161.93,35a34.64,34.64,0,0,0,15.19-19.12,69,69,0,0,1-21.93,8.39,34.58,34.58,0,0,0-59.8,23.65,35.16,35.16,0,0,0,.89,7.87A98.09,98.09,0,0,1,25.05,19.64,34.61,34.61,0,0,0,35.74,65.79a34.41,34.41,0,0,1-15.65-4.32v.43A34.6,34.6,0,0,0,47.81,95.79,35.07,35.07,0,0,1,38.7,97a34.66,34.66,0,0,1-6.49-.63,34.58,34.58,0,0,0,32.28,24,69.35,69.35,0,0,1-42.93,14.79,72.48,72.48,0,0,1-8.24-.48,98,98,0,0,0,53,15.52c63.57,0,98.33-52.65,98.33-98.33,0-1.49,0-3-.1-4.48a70.3,70.3,0,0,0,17.24-17.88" style="fill:#92d0f9"/><path d="M171,18.7a69,69,0,0,1-19.86,5.44A34.55,34.55,0,0,0,166.3,5a68.82,68.82,0,0,1-21.94,8.4,34.6,34.6,0,0,0-58.9,31.51A98,98,0,0,1,14.23,8.82,34.61,34.61,0,0,0,24.92,55,34.42,34.42,0,0,1,9.27,50.64v.44A34.59,34.59,0,0,0,37,85a34.68,34.68,0,0,1-15.61.59,34.6,34.6,0,0,0,32.28,24,69.3,69.3,0,0,1-42.92,14.8,72.22,72.22,0,0,1-8.24-.48,97.94,97.94,0,0,0,53,15.51c63.56,0,98.32-52.65,98.32-98.33,0-1.49,0-3-.09-4.47A70.67,70.67,0,0,0,171,18.7" style="fill:none;stroke:#000;stroke-linecap:round;stroke-linejoin:round;stroke-width:5px"/></g></g></svg>